<svg version="1.1" xmlns="http://www.w3.org/2000/svg" xmlns:xlink="http://www.w3.org/1999/xlink" width="108.11779" height="70.84793" viewBox="0,0,108.11779,70.84793"><g transform="translate(-186.4706,-144.78841)"><g data-paper-data="{&quot;isPaintingLayer&quot;:true}" fill-rule="evenodd" stroke-miterlimit="10" stroke-dasharray="" stroke-dashoffset="0" style="mix-blend-mode: normal"><g data-paper-data="{&quot;index&quot;:null}"><path d="M279.06709,193.573c2.2292,-1.5433 3.9439,-3.601 4.9728,-6.0874c2.4863,-6.3445 0.6001,-13.718 4.7155,-13.6322c4.0297,0.0857 9.3454,11.0601 0.9431,19.3767c-2.4864,2.4006 -5.4872,4.2868 -8.6595,5.6586c-0.6859,0.343 -6.6875,2.6579 -10.0312,0.7717c-3.3438,-1.8863 -2.315,-3.2581 -1.8863,-3.944c0.4287,-0.7716 7.2877,-0.1714 9.9456,-2.1434z" fill="#f9a41f" stroke="none" stroke-width="1" stroke-linecap="butt" stroke-linejoin="miter"></path><path d="M288.41249,173.9391c1.8862,-0.3429 4.887,3.1723 5.4872,6.5161c0.4287,2.4864 0.1714,5.0585 -0.6002,7.4591c-0.8574,1.4576 -1.2861,-1.629 -3.6867,-2.2291c-1.7148,-0.343 -3.4295,-0.1715 -5.0585,0.5144c0,0 0.8574,-4.8871 1.286,-7.5449c0.343,-2.7436 0.6002,-4.2869 2.5722,-4.7156z" fill="#ffffff" stroke="none" stroke-width="1" stroke-linecap="butt" stroke-linejoin="miter"></path><path d="M279.06709,193.573c2.2292,-1.5433 3.9439,-3.601 4.9728,-6.0874c2.4863,-6.3445 0.6001,-13.718 4.7155,-13.6322c4.0297,0.0857 9.3454,11.0601 0.9431,19.3767c-2.4864,2.4006 -5.4872,4.2868 -8.6595,5.6586c-0.6859,0.343 -6.6875,2.6579 -10.0312,0.7717c-3.3438,-1.8863 -2.315,-3.2581 -1.8863,-3.944c0.4287,-0.7716 7.2877,-0.1714 9.9456,-2.1434z" fill="none" stroke="#231f20" stroke-width="0.85738" stroke-linecap="round" stroke-linejoin="round"></path></g><g data-paper-data="{&quot;index&quot;:null}"><path d="M218.27919,209.4344c0,0 -14.4896,7.2877 -23.4921,5.4872c-8.9167,-1.8004 -7.5449,-12.3462 -1.1146,-10.7171c4.0297,1.0288 15.0898,2.1434 21.0057,0.2572c6.0016,-1.8863 7.2877,3.258 3.601,4.9727z" fill="#f9a41f" stroke="none" stroke-width="1" stroke-linecap="butt" stroke-linejoin="miter"></path><path d="M218.27919,209.4344c0,0 -14.4896,7.2877 -23.4921,5.4872c-8.9167,-1.8004 -7.5449,-12.3462 -1.1146,-10.7171c4.0297,1.0288 15.0898,2.1434 21.0057,0.2572c6.0016,-1.8863 7.2877,3.258 3.601,4.9727z" fill="none" stroke="#231f20" stroke-width="0.85738" stroke-linecap="round" stroke-linejoin="round"></path></g><g data-paper-data="{&quot;index&quot;:null}"><path d="M257.88989,190.0195c1.972,-3.4295 4.2869,-6.516 6.9448,-9.3454c0.6859,3.0866 0.6001,6.2589 -0.1715,9.3454c-1.7148,1.2004 -3.1723,2.6579 -4.4584,4.3726c-2.4864,3.0866 -4.0296,-1.8004 -2.3149,-4.3726z" fill="#231f20" stroke="#231f20" stroke-width="0.85738" stroke-linecap="round" stroke-linejoin="round" opacity="0.1"></path><path d="M257.97569,189.8863c0,0 5.7444,-10.46 11.6603,-12.6892c8.5737,-3.1722 10.6314,4.2012 7.2876,7.5449c-4.1154,4.2012 -9.5168,0.343 -16.7188,9.5169c-2.4864,3.1723 -4.0296,-1.629 -2.2291,-4.3726z" fill="#f9a41f" stroke="none" stroke-width="1" stroke-linecap="butt" stroke-linejoin="miter"></path><path d="M257.97569,189.8863c0,0 5.7444,-10.46 11.6603,-12.6892c8.5737,-3.1722 10.6314,4.2012 7.2876,7.5449c-4.1154,4.2012 -9.5168,0.343 -16.7188,9.5169c-2.4864,3.1723 -4.0296,-1.629 -2.2291,-4.3726z" fill="none" stroke="#231f20" stroke-width="0.85738" stroke-linecap="round" stroke-linejoin="round"></path></g><g data-paper-data="{&quot;index&quot;:null}"><path d="M273.49409,195.7164l-0.0857,4.4584c3.0866,1.3718 6.4303,1.8005 9.6883,1.3718c3.5153,-0.6859 8.831,-3.1723 10.1171,2.6579c1.1146,4.8013 -7.0305,8.2308 -23.4921,7.8021c-16.8903,-0.4287 -26.6644,-4.7156 -26.6644,-4.7156c-1.0288,-16.2044 30.3511,-11.6603 30.4368,-11.5746z" fill="#f9a41f" stroke="none" stroke-width="1" stroke-linecap="butt" stroke-linejoin="miter"></path><path d="M252.74569,199.7461c0,0 12.0032,-0.4287 15.6042,3.258c2.4006,2.4007 0.1715,4.7156 -2.5721,5.1443c-6.3446,1.0288 -17.319,-2.0577 -18.0049,-3.6867z" fill="#ffffff" stroke="none" stroke-width="1" stroke-linecap="butt" stroke-linejoin="miter"></path><path d="M273.49409,195.7164l0.343,6.5161c3.0865,0 6.1731,-0.2572 9.2596,-0.6859c3.5153,-0.6002 9.0025,-3.258 10.1171,2.6579c1.1146,5.6586 -7.0305,8.2308 -23.4921,7.8021c-16.8903,-0.4287 -26.6644,-4.7156 -26.6644,-4.7156c-1.0288,-16.2044 30.3511,-11.6603 30.4368,-11.5746z" fill="none" stroke="#231f20" stroke-width="0.85738" stroke-linecap="round" stroke-linejoin="round"></path></g><g data-paper-data="{&quot;index&quot;:null}"><g><path d="M229.59649,157.1346c3.1723,-0.4287 6.4304,-0.1715 9.5169,0.6001l12.1747,-12.5176l1.972,20.234c0,0 6.516,3.0866 9.4311,14.7469c3.258,12.9463 -7.3734,26.0642 -23.5778,30.7797c-21.5201,6.2589 -40.4681,0.0858 -41.5827,-14.6611c-0.6001,-7.7164 4.9728,-9.5169 4.9728,-9.5169c0,0 -1.4575,-4.8013 0.6859,-11.4888c1.2861,-4.0296 3.6867,-7.5449 6.859,-10.2885l0.3429,-12.6891l10.3743,7.0304c2.9151,-1.0288 5.8301,-1.8004 8.8309,-2.2291z" fill="#f9a41f" stroke="none" stroke-width="1" stroke-linecap="butt" stroke-linejoin="miter"></path><path d="M221.79439,188.1715c7.9736,-0.0857 25.5498,-12.0032 31.38,0c6.3445,13.0321 -3.8582,19.9769 -14.061,22.8062c-29.9224,8.4023 -41.6684,-6.3446 -41.5827,-14.6611c0,-6.2588 1.7148,-8.2308 4.9728,-9.5169c7.5449,-3.0008 11.4031,1.3718 19.2909,1.3718z" fill="#ffffff" stroke="none" stroke-width="1" stroke-linecap="butt" stroke-linejoin="miter"></path><g fill="none" stroke="#231f20" stroke-width="0.85738" stroke-linecap="round" stroke-linejoin="round"><path d="M229.59649,157.1346c3.1723,-0.4287 6.4304,-0.1715 9.5169,0.6001l12.1747,-12.5176l1.972,20.234c0,0 6.516,3.0866 9.4311,14.7469c3.258,12.9463 -7.3734,26.0642 -23.5778,30.7797c-21.5201,6.2589 -40.4681,0.0858 -41.5827,-14.6611c-0.6001,-7.7164 4.9728,-9.5169 4.9728,-9.5169c0,0 -1.4575,-4.8013 0.6859,-11.4888c1.2861,-4.0296 3.6867,-7.5449 6.859,-10.2885l0.3429,-12.6891l10.3743,7.0304c2.9151,-1.0288 5.8301,-1.8004 8.8309,-2.2291z"></path></g></g><path d="M239.11339,157.7347l-1.1146,1.2004" fill="none" stroke="#231f20" stroke-width="0.85738" stroke-linecap="round" stroke-linejoin="round"></path></g><g data-paper-data="{&quot;index&quot;:null}" fill="none" stroke="#231f20" stroke-width="0.85738" stroke-linecap="round" stroke-linejoin="round"><path d="M273.15119,182.9891c-2.0577,0.6859 -4.1154,1.2003 -6.1731,1.629c-1.972,0.3429 -5.8302,0.6859 -5.8302,0.6859"></path><path d="M260.03339,181.2743c1.7147,-1.8005 3.6009,-3.5152 5.5729,-4.9728c1.8862,-1.4575 3.9439,-2.7436 6.1731,-3.8582"></path></g><g data-paper-data="{&quot;index&quot;:null}"><path d="M215.10689,167.5088c3.258,1.2861 4.3726,6.6875 2.3149,12.0033c-2.0577,5.3157 -6.3446,8.6594 -9.6883,7.3734c-3.258,-1.2861 -4.3726,-6.6875 -2.3149,-12.0033c2.0577,-5.3157 6.4303,-8.7452 9.6883,-7.3734z" fill="#ffffff" stroke="#231f20" stroke-width="0.85738" stroke-linecap="round" stroke-linejoin="round"></path><path d="M207.13329,177.7973v0c0,-1.0288 0.9431,-1.972 2.0577,-1.972c1.0289,0.0858 1.8005,0.8574 1.8005,1.8863c0,1.0288 -0.8574,1.9719 -1.8862,1.9719c-1.0289,0 -1.972,-0.8573 -1.972,-1.8862" fill="#231f20" stroke="none" stroke-width="1" stroke-linecap="butt" stroke-linejoin="miter"></path></g><g data-paper-data="{&quot;index&quot;:null}"><path d="M242.02849,165.8798c3.9439,1.4575 5.4872,6.9447 3.4295,12.3462c-1.972,5.3157 -6.859,8.4023 -10.8029,6.9447c-3.944,-1.4575 -5.4872,-7.0304 -3.4295,-12.3462c1.9719,-5.3157 6.859,-8.4022 10.8029,-6.9447z" fill="#ffffff" stroke="#231f20" stroke-width="0.85738" stroke-linecap="round" stroke-linejoin="round"></path><path d="M233.19749,175.9968v0c-0.3429,-1.1146 0.343,-2.2292 1.4576,-2.4006c0.9431,-0.2572 1.9719,0.3429 2.2291,1.286c0.343,1.0289 -0.2572,2.0577 -1.286,2.4007c-1.0289,0.3429 -2.0577,-0.2572 -2.4007,-1.2861" fill="#231f20" stroke="none" stroke-width="1" stroke-linecap="butt" stroke-linejoin="miter"></path></g><g data-paper-data="{&quot;index&quot;:null}" stroke="#231f20" stroke-width="0.85738" stroke-linecap="round" stroke-linejoin="round"><path d="M226.76719,186.2853c0.5144,1.629 -2.8293,4.7156 -4.887,5.0585c-2.0577,0.343 -4.5441,-2.8293 -4.7156,-3.7724c-0.1715,-2.1435 3.1723,-1.8005 4.9728,-1.972c1.629,-0.1715 4.1154,-0.9431 4.6298,0.6859z" fill="#231f20"></path><path d="M229.59649,195.545c0.5145,2.7436 -13.6322,3.8582 -13.8894,1.7147" fill="none"></path></g><g data-paper-data="{&quot;index&quot;:null}"><path d="M273.23689,191.9058c4.2869,-0.2573 8.3166,1.9719 9.0882,5.0585c0.7716,3.0865 -2.0577,5.8301 -6.3446,6.1731c-4.2868,0.3429 -8.4022,-1.8863 -9.0881,-4.9728c-0.7717,-3.0866 2.0577,-5.9159 6.3445,-6.2588z" fill="#f9a41f" stroke="none" stroke-width="1" stroke-linecap="butt" stroke-linejoin="miter"></path><path d="M273.23689,191.9058c4.2869,-0.2573 8.3166,1.9719 9.0882,5.0585c0.7716,3.0865 -2.0577,5.8301 -6.3446,6.1731c-4.2868,0.3429 -8.4022,-1.8863 -9.0881,-4.9728c-0.7717,-3.0866 2.0577,-5.9159 6.3445,-6.2588z" fill="none" stroke="#231f20" stroke-width="0.85738" stroke-linecap="round" stroke-linejoin="round"></path></g><g data-paper-data="{&quot;index&quot;:null}" fill="none" stroke="#231f20" stroke-width="0.85738" stroke-linecap="round" stroke-linejoin="round"><path d="M199.75989,192.7631c-2.4864,0.1715 -4.9728,0.0858 -7.5449,-0.0857c-1.8862,-0.2572 -3.6867,-0.7716 -5.3157,-1.629"></path><path d="M200.78869,198.2503c-1.8004,0.9431 -3.6867,1.629 -5.7444,2.1435c-1.629,0.3429 -3.258,0.6001 -4.887,0.6859"></path></g></g></g></svg>