<svg version="1.1" xmlns="http://www.w3.org/2000/svg" xmlns:xlink="http://www.w3.org/1999/xlink" width="86.1206" height="103.64005" viewBox="0,0,86.1206,103.64005"><g transform="translate(-202.49587,-115.41344)"><g data-paper-data="{&quot;isPaintingLayer&quot;:true}" fill-rule="evenodd" stroke-miterlimit="10" stroke-dasharray="" stroke-dashoffset="0" style="mix-blend-mode: normal"><g data-paper-data="{&quot;index&quot;:null}"><path d="M233.37696,133.93027c4.5843,-0.75362 14.0098,1.57005 14.0098,1.57005c3.10502,2.83861 6.55385,18.35973 6.55385,18.35973l-19.82981,2.09624c0,0 -7.85813,-8.56886 -11.71074,-21.35854" fill="#f9a41e" stroke="none" stroke-width="1" stroke-linecap="butt" stroke-linejoin="miter"></path><path d="M233.37696,133.93027c4.5843,-0.75362 14.0098,1.57005 14.0098,1.57005c3.10502,2.83861 6.55385,18.35973 6.55385,18.35973l-19.82981,2.09624c0,0 -6.75372,-8.17301 -11.71074,-21.35854" fill="none" stroke="#231f20" stroke-width="0.9025" stroke-linecap="round" stroke-linejoin="round"></path><path d="M238.17417,154.24887c-2.85019,-2.74727 -7.15777,-10.52284 -3.97297,-13.79144c3.1849,-3.26857 14.36547,-1.56212 15.5908,9.99822c0.95591,8.29994 -8.7372,6.45558 -11.61783,3.79322z" fill="#ffffff" stroke="none" stroke-width="1" stroke-linecap="butt" stroke-linejoin="miter"></path></g><g data-paper-data="{&quot;index&quot;:null}"><path d="M222.40006,134.59774c0,0 -3.02681,-7.60417 -2.90537,-13.0253c0.30584,-7.27258 10.48761,-8.12912 11.69189,0.54751c0.5838,4.52344 1.13068,9.41723 2.72899,13.24975" fill="#f9a41e" stroke="none" stroke-width="1" stroke-linecap="butt" stroke-linejoin="miter"></path><path d="M222.40006,134.59774c0,0 -3.02681,-7.60417 -2.90537,-13.0253c0.30584,-7.27258 10.48761,-8.12912 11.69189,0.54751c0.5838,4.52344 1.13068,9.41723 2.72899,13.24975" fill="none" stroke="#231f20" stroke-width="0.9025" stroke-linecap="round" stroke-linejoin="round"></path></g><g data-paper-data="{&quot;index&quot;:null}"><path d="M248.20467,142.31277c-3.47846,-0.19212 -6.75825,-4.14801 -7.61452,-9.24852c-0.75372,-4.58434 1.42448,-8.78896 4.90926,-8.88214c4.0859,-0.16539 7.64462,4.08222 7.85656,9.9105c0.14618,4.94181 -1.81242,8.26643 -5.1513,8.22016z" fill="#f9a41e" stroke="none" stroke-width="1" stroke-linecap="butt" stroke-linejoin="miter"></path><path d="M248.20467,142.31277c-3.47846,-0.19212 -6.75825,-4.14801 -7.61452,-9.24852c-0.75372,-4.58434 1.42448,-8.78896 4.90926,-8.88214c4.0859,-0.16539 7.64462,4.08222 7.85656,9.9105c0.14618,4.94181 -1.81242,8.26643 -5.1513,8.22016z" fill="none" stroke="#231f20" stroke-width="0.9025" stroke-linecap="round" stroke-linejoin="round"></path></g><g data-paper-data="{&quot;index&quot;:null}"><path d="M264.77379,188.90125c0,0 11.22938,12.26986 11.96566,21.44991c0.79076,9.29539 -10.03535,10.87971 -10.16726,4.02557c-0.13483,-4.17088 -2.13762,-15.43464 -5.70123,-20.73854c-3.39379,-5.24304 1.23535,-7.99396 3.90283,-4.73694z" fill="#f9a41e" stroke="none" stroke-width="1" stroke-linecap="butt" stroke-linejoin="miter"></path><path d="M264.77379,188.90125c0,0 11.22938,12.26986 11.96566,21.44991c0.79076,9.29539 -10.03535,10.87971 -10.16726,4.02557c-0.13483,-4.17088 -2.13762,-15.43464 -5.70123,-20.73854c-3.39379,-5.24304 1.23535,-7.99396 3.90283,-4.73694z" fill="none" stroke="#231f20" stroke-width="0.9025" stroke-linecap="round" stroke-linejoin="round"></path></g><g data-paper-data="{&quot;index&quot;:null}"><path d="M229.0089,138.93712c0,0 10.14349,-3.44477 15.42243,3.29899c5.95568,7.54988 -3.55352,11.53321 -7.15073,6.16637c-4.24564,-5.99469 -11.32262,-3.95265 -11.32262,-3.95265z" fill="#f9a41e" stroke="none" stroke-width="1" stroke-linecap="butt" stroke-linejoin="miter"></path><path d="M229.0089,138.93712c0,0 10.67824,-3.53001 15.42243,3.29899c5.55272,7.88823 -3.55352,11.53321 -7.15073,6.16637c-4.24564,-5.99469 -11.32262,-3.95265 -11.32262,-3.95265z" fill="none" stroke="#231f20" stroke-width="0.9025" stroke-linecap="round" stroke-linejoin="round"></path></g><g data-paper-data="{&quot;index&quot;:null}"><path d="M231.98009,203.89556c-4.66626,-1.96017 -8.06789,-5.57614 -8.06789,-5.57614l-17.20407,4.66714l8.87276,-18.87035c0,0 -4.06066,-6.05729 -0.59901,-17.85514c3.9184,-13.07217 20.06769,-19.07619 36.78187,-14.61939c22.1946,5.75006 35.49672,21.06377 28.91264,34.61863c-3.49878,7.08676 -9.46497,5.81124 -9.46497,5.81124c0,0 -1.22593,5.02525 -6.55545,9.73024c-5.35995,4.78991 -11.37094,5.51159 -11.37094,5.51159l-6.98176,10.91965l-5.42022,-11.62586c0,0 -4.17576,-0.92146 -8.90296,-2.71162z" fill="#f9a41e" stroke="none" stroke-width="1" stroke-linecap="butt" stroke-linejoin="miter"></path><path d="M254.96653,180.68843c-6.9586,-4.124 -28.71205,-2.81306 -27.49462,-16.37401c1.158,-14.73272 13.79241,-15.47726 24.20683,-12.70321c31.67463,8.18921 33.44383,27.32657 28.91274,34.61867c-3.2905,5.43572 -5.82315,6.34958 -9.46507,5.81121c-8.0484,-1.35078 -9.0859,-7.28322 -16.15988,-11.35265z" fill="#ffffff" stroke="none" stroke-width="1" stroke-linecap="butt" stroke-linejoin="miter"></path><path d="M221.78673,198.89981l4.91295,-1.40291" fill="none" stroke="#231f20" stroke-width="0.63175" stroke-linecap="round" stroke-linejoin="round"></path><path d="M231.98009,203.89556c-4.66626,-1.96017 -8.06789,-5.57614 -8.06789,-5.57614l-17.20407,4.66714l8.87276,-18.87035c0,0 -4.06066,-6.05729 -0.59901,-17.85514c3.9184,-13.07217 20.06769,-19.07619 36.78187,-14.61939c22.1946,5.75006 35.49672,21.06377 28.91264,34.61863c-3.49878,7.08676 -9.46497,5.81124 -9.46497,5.81124c0,0 -1.22593,5.02525 -6.55545,9.73024c-5.35995,4.78991 -11.37094,5.51159 -11.37094,5.51159l-6.98176,10.91965l-5.42022,-11.62586c0,0 -4.17576,-0.92146 -8.90296,-2.71162z" fill="none" stroke="#231f20" stroke-width="0.9025" stroke-linecap="round" stroke-linejoin="round"></path></g><g data-paper-data="{&quot;index&quot;:null}" fill="none" stroke="#231f20" stroke-width="0.9025" stroke-linecap="round" stroke-linejoin="round"><path d="M207.25041,158.40876c0,0 4.40016,1.09771 6.35423,1.79809c1.92351,0.78536 5.45494,2.43459 5.45494,2.43459"></path><path d="M217.88323,166.72575c0,0 -3.04873,1.01645 -7.51127,1.43033c-4.94824,0.43144 -7.42485,0.119 -7.42485,0.119"></path></g><g data-paper-data="{&quot;index&quot;:null}"><path d="M250.11573,202.24663c-2.21864,-2.9044 -0.36116,-8.08677 4.20221,-11.72416c4.64825,-3.60686 10.17359,-4.31087 12.39224,-1.40647c2.21864,2.9044 0.36116,8.08677 -4.20221,11.72416c-4.56334,3.6373 -10.14316,4.22596 -12.39224,1.40647z" fill="#ffffff" stroke="#231f20" stroke-width="0.9025" stroke-linecap="round" stroke-linejoin="round"></path><path d="M262.2146,197.23815c-0.70524,0.89769 -1.96834,1.21194 -2.84202,0.70705c-0.87359,-0.50486 -1.1574,-1.85287 -0.4217,-2.83556c0.65067,-1.01307 1.99877,-1.29685 2.84193,-0.70708c0.87368,0.50489 1.15746,1.853 0.42179,2.83559" fill="#231f20" stroke="none" stroke-width="1" stroke-linecap="butt" stroke-linejoin="miter"></path></g><g data-paper-data="{&quot;index&quot;:null}"><path d="M225.67654,189.65217c-2.63705,-3.34193 -1.08257,-9.0165 3.48077,-12.65379c4.56337,-3.63739 10.47666,-3.81886 13.11368,-0.47684c2.63705,3.34193 1.08247,9.01646 -3.48087,12.65376c-4.56337,3.63739 -10.47657,3.81889 -13.11359,0.47687z" fill="#ffffff" stroke="#231f20" stroke-width="0.9025" stroke-linecap="round" stroke-linejoin="round"></path><path d="M238.33327,185.22713c-0.39588,1.1045 -1.46505,1.68 -2.59989,1.36907c-1.01949,-0.36541 -1.56456,-1.5195 -1.16872,-2.6239c0.39588,-1.1045 1.66531,-1.70404 2.59989,-1.36907c1.01949,0.36541 1.56456,1.5195 1.16872,2.6239" fill="#231f20" stroke="none" stroke-width="1" stroke-linecap="butt" stroke-linejoin="miter"></path></g><g data-paper-data="{&quot;index&quot;:null}" stroke="#231f20" stroke-linecap="round" stroke-linejoin="round"><path d="M249.61904,179.8263c0.32372,-1.70548 4.91448,-2.74446 6.92304,-1.92873c2.09343,0.84626 2.54411,4.93849 2.23961,5.78807c-1.07065,1.91718 -3.82462,-0.02863 -5.43244,-0.89247c-1.43787,-0.80304 -4.0234,-1.34626 -3.7302,-2.96687z" fill="#231f20" stroke-width="0.63175"></path><path d="M250.69735,171.20083c0.77404,-2.69454 13.56424,3.61546 12.74851,5.62401" fill="none" stroke-width="0.9025"></path></g><g data-paper-data="{&quot;index&quot;:null}" fill="#231f20" stroke="#231f20" stroke-width="0.63175" stroke-linecap="round" stroke-linejoin="round" opacity="0.1"><path d="M229.32883,148.9693c0.6364,0.89926 1.18784,1.76796 1.68479,2.52131"></path><path d="M252.75582,149.40877c0.32062,0.97771 0.55629,1.92508 0.71341,2.55663"></path></g><g data-paper-data="{&quot;index&quot;:null}" fill="none" stroke="#231f20" stroke-width="0.9025" stroke-linecap="round" stroke-linejoin="round"><path d="M274.62861,187.35229c0,0 4.42902,2.35444 6.53379,3.97164c2.49914,1.85447 3.87454,4.16907 3.87454,4.16907"></path><path d="M277.1609,181.35714c0,0 3.22987,-0.18455 6.15532,0.48052c2.92536,0.66503 4.849,1.45033 4.849,1.45033"></path></g></g></g></svg>