<svg version="1.1" xmlns="http://www.w3.org/2000/svg" xmlns:xlink="http://www.w3.org/1999/xlink" width="86.1206" height="103.64004" viewBox="0,0,86.1206,103.64004"><g transform="translate(-202.49587,-115.41345)"><g data-paper-data="{&quot;isPaintingLayer&quot;:true}" fill-rule="evenodd" stroke-miterlimit="10" stroke-dasharray="" stroke-dashoffset="0" style="mix-blend-mode: normal"><g data-paper-data="{&quot;index&quot;:null}"><path d="M222.40006,199.86919c3.85261,-12.78968 11.71074,-21.35854 11.71074,-21.35854l19.82981,2.09624c0,0 -3.44883,15.52113 -6.55385,18.35973c0,0 -9.4255,2.32367 -14.0098,1.57004" fill="#f9a41e" stroke="none" stroke-width="1" stroke-linecap="butt" stroke-linejoin="miter"></path><path d="M222.40006,199.86919c4.95702,-13.18553 11.71074,-21.35854 11.71074,-21.35854l19.82981,2.09624c0,0 -3.44883,15.52113 -6.55385,18.35973c0,0 -9.4255,2.32367 -14.0098,1.57004" fill="none" stroke="#231f20" stroke-width="0.9025" stroke-linecap="round" stroke-linejoin="round"></path><path d="M249.792,184.01129c-1.22534,11.56034 -12.4059,13.26679 -15.5908,9.99822c-3.18481,-3.26861 1.12278,-11.04417 3.97297,-13.79144c2.88063,-2.66236 12.57373,-4.50672 11.61782,3.79322z" fill="#ffffff" stroke="none" stroke-width="1" stroke-linecap="butt" stroke-linejoin="miter"></path></g><g data-paper-data="{&quot;index&quot;:null}"><path d="M233.91557,199.09722c-1.59832,3.83252 -2.14519,8.72632 -2.72899,13.24975c-1.20428,8.67663 -11.38605,7.82009 -11.69189,0.54751c-0.12143,-5.42113 2.90537,-13.02529 2.90537,-13.02529" fill="#f9a41e" stroke="none" stroke-width="1" stroke-linecap="butt" stroke-linejoin="miter"></path><path d="M233.91557,199.09722c-1.59832,3.83252 -2.14519,8.72632 -2.72899,13.24975c-1.20428,8.67663 -11.38605,7.82009 -11.69189,0.54751c-0.12143,-5.42113 2.90537,-13.02529 2.90537,-13.02529" fill="none" stroke="#231f20" stroke-width="0.9025" stroke-linecap="round" stroke-linejoin="round"></path></g><g data-paper-data="{&quot;index&quot;:null}"><path d="M253.35597,200.37432c-0.21194,5.82828 -3.77065,10.0759 -7.85655,9.9105c-3.48479,-0.09318 -5.66298,-4.2978 -4.90927,-8.88214c0.85628,-5.10051 4.13606,-9.05641 7.61452,-9.24852c3.33888,-0.04627 5.29748,3.27835 5.1513,8.22016z" fill="#f9a41e" stroke="none" stroke-width="1" stroke-linecap="butt" stroke-linejoin="miter"></path><path d="M253.35597,200.37432c-0.21194,5.82828 -3.77065,10.0759 -7.85655,9.9105c-3.48479,-0.09318 -5.66298,-4.2978 -4.90927,-8.88214c0.85628,-5.10051 4.13606,-9.05641 7.61452,-9.24852c3.33888,-0.04627 5.29748,3.27835 5.1513,8.22016z" fill="none" stroke="#231f20" stroke-width="0.9025" stroke-linecap="round" stroke-linejoin="round"></path></g><g data-paper-data="{&quot;index&quot;:null}"><path d="M260.87095,140.82874c3.5636,-5.3039 5.5664,-16.56767 5.70123,-20.73854c0.13191,-6.85414 10.95802,-5.26981 10.16726,4.02558c-0.73628,9.18005 -11.96566,21.44991 -11.96566,21.44991c-2.66749,3.25702 -7.29662,0.50609 -3.90283,-4.73694z" fill="#f9a41e" stroke="none" stroke-width="1" stroke-linecap="butt" stroke-linejoin="miter"></path><path d="M260.87095,140.82874c3.5636,-5.3039 5.5664,-16.56767 5.70123,-20.73854c0.13191,-6.85414 10.95802,-5.26981 10.16726,4.02558c-0.73628,9.18005 -11.96566,21.44991 -11.96566,21.44991c-2.66749,3.25702 -7.29662,0.50609 -3.90283,-4.73694z" fill="none" stroke="#231f20" stroke-width="0.9025" stroke-linecap="round" stroke-linejoin="round"></path></g><g data-paper-data="{&quot;index&quot;:null}"><path d="M225.95799,190.01709c0,0 7.07697,2.04203 11.32261,-3.95265c3.59722,-5.36684 13.10641,-1.3835 7.15073,6.16637c-5.27894,6.74376 -15.42243,3.29899 -15.42243,3.29899z" fill="#f9a41e" stroke="none" stroke-width="1" stroke-linecap="butt" stroke-linejoin="miter"></path><path d="M225.95799,190.01709c0,0 7.07697,2.04203 11.32261,-3.95265c3.59722,-5.36684 12.70346,-1.72186 7.15073,6.16637c-4.74419,6.829 -15.42243,3.29899 -15.42243,3.29899z" fill="none" stroke="#231f20" stroke-width="0.9025" stroke-linecap="round" stroke-linejoin="round"></path></g><g data-paper-data="{&quot;index&quot;:null}"><path d="M240.88305,127.85976l5.42022,-11.62586l6.98176,10.91965c0,0 6.01098,0.72168 11.37093,5.51158c5.32952,4.70499 6.55545,9.73024 6.55545,9.73024c0,0 5.9662,-1.27553 9.46498,5.81124c6.58407,13.55486 -6.71804,28.86857 -28.91264,34.61864c-16.71418,4.4568 -32.86347,-1.54722 -36.78187,-14.61939c-3.46165,-11.79785 0.59901,-17.85514 0.59901,-17.85514l-8.87276,-18.87035l17.20408,4.66714c0,0 3.40162,-3.61597 8.06788,-5.57613c4.72719,-1.79015 8.90296,-2.71162 8.90296,-2.71162z" fill="#f9a41e" stroke="none" stroke-width="1" stroke-linecap="butt" stroke-linejoin="miter"></path><path d="M271.12641,142.42585c3.64191,-0.53837 6.17457,0.37548 9.46507,5.81121c4.5311,7.29209 2.7619,26.42946 -28.91273,34.61867c-10.41442,2.77406 -23.04882,2.02951 -24.20683,-12.70321c-1.21743,-13.56096 20.53602,-12.25002 27.49462,-16.37402c7.07397,-4.06943 8.11148,-10.00186 16.15988,-11.35265z" fill="#ffffff" stroke="none" stroke-width="1" stroke-linecap="butt" stroke-linejoin="miter"></path><path d="M226.69969,136.97003l-4.91295,-1.40291" fill="none" stroke="#231f20" stroke-width="0.63175" stroke-linecap="round" stroke-linejoin="round"></path><path d="M240.88305,127.85976l5.42022,-11.62586l6.98176,10.91965c0,0 6.01098,0.72168 11.37093,5.51158c5.32952,4.70499 6.55545,9.73024 6.55545,9.73024c0,0 5.9662,-1.27553 9.46498,5.81124c6.58407,13.55486 -6.71804,28.86857 -28.91264,34.61864c-16.71418,4.4568 -32.86347,-1.54722 -36.78187,-14.61939c-3.46165,-11.79785 0.59901,-17.85514 0.59901,-17.85514l-8.87276,-18.87035l17.20408,4.66714c0,0 3.40162,-3.61597 8.06788,-5.57613c4.72719,-1.79015 8.90296,-2.71162 8.90296,-2.71162z" fill="none" stroke="#231f20" stroke-width="0.9025" stroke-linecap="round" stroke-linejoin="round"></path></g><g data-paper-data="{&quot;index&quot;:null}" fill="none" stroke="#231f20" stroke-width="0.9025" stroke-linecap="round" stroke-linejoin="round"><path d="M219.05958,171.82549c0,0 -3.53143,1.64924 -5.45494,2.43459c-1.95407,0.70039 -6.35423,1.79809 -6.35423,1.79809"></path><path d="M202.94712,166.19186c0,0 2.47661,-0.31245 7.42484,0.11899c4.46254,0.41389 7.51127,1.43034 7.51127,1.43034"></path></g><g data-paper-data="{&quot;index&quot;:null}"><path d="M262.50797,133.62678c4.56338,3.63739 6.42086,8.81977 4.20221,11.72416c-2.21864,2.90439 -7.74398,2.20039 -12.39223,-1.40647c-4.56338,-3.63739 -6.42086,-8.81976 -4.20221,-11.72416c2.24908,-2.81948 7.8289,-2.23083 12.39224,1.40647z" fill="#ffffff" stroke="#231f20" stroke-width="0.9025" stroke-linecap="round" stroke-linejoin="round"></path><path d="M262.2146,137.22878c0.73568,0.9826 0.45189,2.3307 -0.42179,2.83559c-0.84315,0.58977 -2.19125,0.30599 -2.84192,-0.70708c-0.73571,-0.9827 -0.45189,-2.3307 0.42169,-2.83557c0.87368,-0.50489 2.13678,-0.19064 2.84202,0.70705" fill="#231f20" stroke="none" stroke-width="1" stroke-linecap="butt" stroke-linejoin="miter"></path></g><g data-paper-data="{&quot;index&quot;:null}"><path d="M238.79013,145.29164c4.56334,3.6373 6.11792,9.31183 3.48087,12.65376c-2.63702,3.34203 -8.55031,3.16056 -13.11368,-0.47683c-4.56334,-3.6373 -6.11783,-9.31187 -3.48077,-12.6538c2.63702,-3.34203 8.55021,-3.16052 13.11359,0.47687z" fill="#ffffff" stroke="#231f20" stroke-width="0.9025" stroke-linecap="round" stroke-linejoin="round"></path><path d="M238.33327,149.2398c0.39585,1.10441 -0.14923,2.25849 -1.16872,2.6239c-0.93458,0.33497 -2.20401,-0.26457 -2.59989,-1.36907c-0.39585,-1.10441 0.14923,-2.25849 1.16872,-2.6239c1.13484,-0.31094 2.20401,0.26457 2.59989,1.36907" fill="#231f20" stroke="none" stroke-width="1" stroke-linecap="butt" stroke-linejoin="miter"></path></g><g data-paper-data="{&quot;index&quot;:null}" stroke="#231f20" stroke-linecap="round" stroke-linejoin="round"><path d="M253.34925,151.67376c1.60782,-0.86384 4.36178,-2.80964 5.43243,-0.89246c0.30451,0.84957 -0.14617,4.94181 -2.2396,5.78807c-2.00855,0.81573 -6.59931,-0.22325 -6.92303,-1.92874c-0.29319,-1.62061 2.29233,-2.16384 3.7302,-2.96687z" fill="#231f20" stroke-width="0.63175"></path><path d="M263.44586,157.6421c0.81573,2.00855 -11.97446,8.31856 -12.7485,5.62401" fill="none" stroke-width="0.9025"></path></g><g data-paper-data="{&quot;index&quot;:null}" fill="#231f20" stroke="#231f20" stroke-width="0.63175" stroke-linecap="round" stroke-linejoin="round" opacity="0.1"><path d="M231.01362,182.97632c-0.49696,0.75335 -1.04839,1.62205 -1.6848,2.52131"></path><path d="M253.46924,182.50153c-0.15713,0.63155 -0.3928,1.57892 -0.71341,2.55664"></path></g><g data-paper-data="{&quot;index&quot;:null}" fill="none" stroke="#231f20" stroke-width="0.9025" stroke-linecap="round" stroke-linejoin="round"><path d="M285.03694,138.97394c0,0 -1.3754,2.31459 -3.87454,4.16906c-2.10478,1.6172 -6.53379,3.97163 -6.53379,3.97163"></path><path d="M288.16522,151.17895c0,0 -1.92364,0.78529 -4.849,1.45032c-2.92545,0.66506 -6.15533,0.48052 -6.15533,0.48052"></path></g></g></g></svg>