<svg version="1.1" xmlns="http://www.w3.org/2000/svg" xmlns:xlink="http://www.w3.org/1999/xlink" width="135.48928" height="72.46397" viewBox="0,0,135.48928,72.46397"><g transform="translate(-168.07838,-180.52549)"><g data-paper-data="{&quot;isPaintingLayer&quot;:true}" fill-rule="nonzero" stroke-miterlimit="10" stroke-dasharray="" stroke-dashoffset="0" style="mix-blend-mode: normal"><path d="M224.22365,239.43919c-6.35405,-2.91825 -18.8131,-9.24978 -14.7202,-15.06864c4.09205,-5.81801 18.90182,10.0155 22.77509,11.71165c0,0 5.41326,-3.38353 5.52501,0.3864c0.11254,3.77008 -4.75826,2.835 -4.75826,2.835c0,0 5.61355,0.75938 3.41273,4.1629c-2.20073,3.40363 -4.47432,0.40999 -5.02218,-0.76911c0,0 1.65302,3.66503 -1.04256,4.43808c-2.69633,0.77219 -3.9528,-2.85657 -1.79966,-4.80894c0,0 -1.27426,-1.46576 -4.36998,-2.88735v0v0v0v0z" data-paper-data="{&quot;index&quot;:null}" fill="#e29339" stroke="#000000" stroke-width="1.52832" stroke-linecap="butt" stroke-linejoin="round"></path><path d="M227.74615,193.5014v0v0v0v0c2.55135,-1.22805 4.69729,-2.31586 4.69804,-2.31501c-1.892,-2.20732 -0.18905,-5.6488 2.38873,-4.5439c2.57778,1.1049 0.47741,4.533 0.47741,4.533c0.69106,-1.10036 3.32285,-3.78532 5.0778,-0.1317c1.75723,3.65398 -3.9078,3.70057 -3.9078,3.70057c0,0 4.94854,-0.31693 4.36404,3.40938c-0.5837,3.72637 -5.52937,-0.31012 -5.52937,-0.31012c-4.05509,1.1972 -20.09205,13.73349 -23.42085,7.44833c-3.32866,-6.28575 9.71,-8.83699 15.852,-11.79055z" data-paper-data="{&quot;index&quot;:null}" fill="#e29339" stroke="#000000" stroke-width="1.52832" stroke-linecap="butt" stroke-linejoin="round"></path><path d="M271.54162,188.36185v0v0v0v0c2.55056,-1.2282 4.69729,-2.31586 4.69644,-2.31512c-1.89119,-2.20737 -0.18895,-5.64879 2.38883,-4.54389c2.57778,1.1049 0.47741,4.533 0.47741,4.533c0.69096,-1.10036 3.32365,-3.78527 5.0786,-0.13165c1.75723,3.65398 -3.9079,3.70056 -3.9079,3.70056c0,0 4.94854,-0.31693 4.36404,3.40938c-0.58369,3.72627 -5.52858,-0.30996 -5.52858,-0.30996c-4.05588,1.19705 -20.09209,13.73409 -23.42085,7.44833c-3.32935,-6.2859 9.71,-8.83699 15.85201,-11.79065z" data-paper-data="{&quot;index&quot;:null}" fill="#e29339" stroke="#000000" stroke-width="1.52832" stroke-linecap="butt" stroke-linejoin="round"></path><path d="M272.53135,238.65165v0v0v0v0c2.51544,1.29957 4.67525,2.36051 4.6754,2.35981c0.62553,-2.83889 4.39963,-3.54887 5.06735,-0.82456c0.66707,2.72356 -3.33416,3.10794 -3.33416,3.10794c1.29448,-0.11059 5.02249,0.378 3.15969,3.97755c-1.86296,3.60184 -5.30749,-0.89644 -5.30749,-0.89644c0,0 3.23026,3.7638 -0.09807,5.53738c-3.32923,1.77502 -3.07821,-4.60363 -3.07821,-4.60363c-3.39627,-2.51967 -23.05755,-7.79089 -20.03795,-14.23087c3.01881,-6.44014 12.89946,2.44312 18.95345,5.57283z" data-paper-data="{&quot;index&quot;:null}" fill="#e29339" stroke="#000000" stroke-width="1.52832" stroke-linecap="butt" stroke-linejoin="round"></path><path d="M272.42777,200.52766v0v0v0v0c2.73069,2.16794 5.36736,8.98924 4.6519,15.67947c-0.4459,7.13022 -6.10979,15.14878 -10.23562,16.93551c-8.7063,3.77064 -17.68404,0.17766 -24.09018,0.19729c-4.92402,0.01521 -8.59832,5.16097 -17.29517,4.12246c-14.32135,-1.70902 -24.28558,-10.41522 -23.45295,-23.78441c0.83268,-13.36989 14.85547,-22.40707 26.22986,-22.49028c7.71283,-0.0574 12.20985,9.17281 16.50543,9.09731c8.19858,-0.14459 21.6896,-4.51791 27.68673,0.24264z" data-paper-data="{&quot;index&quot;:null}" fill="#e29339" stroke="#000000" stroke-width="1.52832" stroke-linecap="butt" stroke-linejoin="miter"></path><path d="M293.9135,190.13259l-3.77817,7.7983" data-paper-data="{&quot;index&quot;:null}" fill="none" stroke="#000000" stroke-width="1.52832" stroke-linecap="round" stroke-linejoin="miter"></path><path d="M298.86121,193.76887l-5.56306,6.04803" data-paper-data="{&quot;index&quot;:null}" fill="none" stroke="#000000" stroke-width="1.52832" stroke-linecap="round" stroke-linejoin="miter"></path><path d="M296.51851,202.39461l6.28499,-1.36596" data-paper-data="{&quot;index&quot;:null}" fill="none" stroke="#000000" stroke-width="1.52832" stroke-linecap="round" stroke-linejoin="miter"></path><path d="M289.02279,235.81423l3.45678,6.38861" data-paper-data="{&quot;index&quot;:null}" fill="none" stroke="#000000" stroke-width="1.52832" stroke-linecap="round" stroke-linejoin="miter"></path><path d="M298.02578,239.78956l-5.69621,-5.9219" data-paper-data="{&quot;index&quot;:null}" fill="none" stroke="#000000" stroke-width="1.52832" stroke-linecap="round" stroke-linejoin="miter"></path><path d="M294.64982,231.89785l6.31464,1.22402" data-paper-data="{&quot;index&quot;:null}" fill="none" stroke="#000000" stroke-width="1.52832" stroke-linecap="round" stroke-linejoin="miter"></path><path d="M265.58385,199.46681c22.70869,-15.97354 26.17416,-0.20961 26.17416,-0.20961c0,0 0.07009,0.04904 0.10699,0.07063c4.34087,2.59144 7.46172,3.59768 6.05358,18.91349c-1.64259,17.86752 -8.89581,17.57292 -8.89581,17.57292c-8.26567,14.4187 -24.54088,-5.28973 -24.54088,-5.28973" data-paper-data="{&quot;index&quot;:null}" fill="#e29339" stroke="#000000" stroke-width="1.52832" stroke-linecap="butt" stroke-linejoin="round"></path><g data-paper-data="{&quot;index&quot;:null}" stroke-width="0.76416" stroke-linecap="butt" stroke-linejoin="miter"><path d="M288.90702,227.26751c0.07633,-0.71424 0.43574,-1.32987 0.95399,-1.7486c0.51879,-0.41789 1.19651,-0.63898 1.91075,-0.56265c0.71423,0.07643 1.32976,0.43584 1.7485,0.95398c0.41798,0.51889 0.63908,1.19651 0.56265,1.91075c-0.07633,0.71424 -0.43574,1.32987 -0.95399,1.7486c-0.51889,0.41789 -1.19651,0.63898 -1.91075,0.56265c-0.71423,-0.07643 -1.32976,-0.43584 -1.7485,-0.95398c-0.41798,-0.51889 -0.63908,-1.19651 -0.56265,-1.91075v0v0z" fill="#ffffff" stroke="#000000"></path><path d="M290.43982,226.84658c0.04765,-0.44528 0.27161,-0.82938 0.59541,-1.08991c0.32305,-0.26129 0.74583,-0.39902 1.1911,-0.35137c0.44528,0.04755 0.82938,0.27161 1.08982,0.5953c0.26139,0.32305 0.39902,0.74583 0.35147,1.19111c-0.04765,0.44528 -0.27161,0.82938 -0.59541,1.08991c-0.32305,0.26129 -0.74583,0.39902 -1.1911,0.35137c-0.44528,-0.04765 -0.82938,-0.27161 -1.08982,-0.5953c-0.26139,-0.32305 -0.39902,-0.74593 -0.35147,-1.19111v0v0z" fill="#000000" stroke="none"></path></g><g data-paper-data="{&quot;index&quot;:null}" stroke-width="0.76416" stroke-linecap="butt" stroke-linejoin="miter"><path d="M291.21178,206.85091c0.07643,-0.71423 0.43584,-1.32976 0.95399,-1.7486c0.51889,-0.41789 1.19651,-0.63898 1.91074,-0.56255c0.71424,0.07633 1.32987,0.43574 1.74861,0.95389c0.41789,0.51889 0.63897,1.19661 0.56265,1.91085c-0.07642,0.71413 -0.43584,1.32976 -0.95398,1.7485c-0.51889,0.41789 -1.19651,0.63908 -1.91075,0.56265c-0.71423,-0.07643 -1.32987,-0.43574 -1.7486,-0.95399c-0.41789,-0.51889 -0.63898,-1.19651 -0.56265,-1.91075v0v0v0z" fill="#ffffff" stroke="#000000"></path><path d="M292.74468,206.42999c0.04765,-0.44528 0.27161,-0.82938 0.5953,-1.08982c0.32305,-0.26139 0.74593,-0.39902 1.19111,-0.35147c0.44528,0.04765 0.82948,0.27162 1.08991,0.59541c0.26129,0.32305 0.39902,0.74583 0.35137,1.1911c-0.04755,0.44518 -0.27161,0.82938 -0.5953,1.08982c-0.32305,0.26139 -0.74583,0.39902 -1.19111,0.35147c-0.44528,-0.04765 -0.82938,-0.27161 -1.08991,-0.59541c-0.26129,-0.32305 -0.39902,-0.74583 -0.35137,-1.1911v0v0z" fill="#000000" stroke="none"></path></g><path d="M296.93806,218.08888c0.10814,-1.01126 0.38877,-1.90737 0.75471,-2.53909c0.3661,-0.63261 0.8179,-0.99929 1.26755,-0.95113c0.44956,0.04805 0.81369,0.50198 1.03765,1.19764c0.22412,0.69487 0.30887,1.63002 0.20073,2.64127c-0.10815,1.01136 -0.38867,1.90738 -0.75471,2.53919c-0.36609,0.63251 -0.81789,0.99919 -1.26745,0.95114c-0.44966,-0.04806 -0.81369,-0.50198 -1.03775,-1.19765c-0.22412,-0.69487 -0.30887,-1.63002 -0.20072,-2.64137v0v0v0z" data-paper-data="{&quot;index&quot;:null}" fill="#ec008c" stroke="#000000" stroke-width="1.30982" stroke-linecap="butt" stroke-linejoin="miter"></path><g data-paper-data="{&quot;index&quot;:null}"><path d="M273.69885,235.96993c-2.8205,-0.69593 -12.41194,1.16869 -13.09352,0.10446c-0.68232,-1.06518 0.90809,-1.70816 2.73639,-4.13019c1.82824,-2.42123 5.95517,-9.60669 5.95517,-9.60669" fill="#e29339" stroke="#000000" stroke-width="1.52832" stroke-linecap="round" stroke-linejoin="round"></path><path d="M264.08124,234.27121v0v0v0v0c0,0 4.57686,-4.74641 6.54355,-8.18964c0.40972,2.22717 1.80783,6.00563 2.4472,7.65865c0,0 -0.5449,-0.10745 -0.54361,-0.10576c-1.82432,-0.49711 -8.44714,0.63675 -8.44714,0.63675z" fill="#58595b" stroke="none" stroke-width="0.76416" stroke-linecap="butt" stroke-linejoin="miter"></path></g><g data-paper-data="{&quot;index&quot;:null}"><path d="M269.17649,209.67261c0,0 -2.51405,-7.89561 -3.78898,-10.64796c-1.27483,-2.75385 -2.69324,-3.71944 -1.80112,-4.61618c0.89112,-0.8953 9.87068,2.95462 12.77527,2.87179" fill="#e29339" stroke="#000000" stroke-width="1.52832" stroke-linecap="round" stroke-linejoin="round"></path><path d="M266.60323,196.90528c0,0 6.23335,2.50867 8.12151,2.40856c-0.00175,0.00218 0.55361,0.01162 0.55361,0.01162c-0.97448,1.48045 -3.13984,4.877 -4.01129,6.96799c-1.19493,-3.78139 -4.66384,-9.38818 -4.66384,-9.38818v0v0v0v0z" fill="#58595b" stroke="none" stroke-width="0.76416" stroke-linecap="butt" stroke-linejoin="miter"></path></g><path d="M206.09869,216.20912c-0.63661,2.10147 -2.85387,3.29453 -4.96,2.66581c-7.11779,-2.12141 -12.77679,-1.75836 -16.81994,1.08086c-6.72042,4.71854 -7.49296,15.11232 -7.49862,15.21467c-0.1251,2.20462 -2.0099,3.8836 -4.21228,3.75946c-2.20089,-0.12394 -3.88345,-2.01069 -3.75881,-4.21153c0.03303,-0.58201 0.92337,-14.30397 10.88191,-21.29758c6.1421,-4.31237 14.11296,-5.05154 23.68837,-2.19617c2.11219,0.62944 3.31459,2.85375 2.68515,4.96594c-0.00211,0.00587 -0.00353,0.01189 -0.00579,0.01855v0v0v0v0v0z" data-paper-data="{&quot;index&quot;:null}" fill="#e29339" stroke="#000000" stroke-width="1.52832" stroke-linecap="butt" stroke-linejoin="miter"></path></g></g></svg>